<svg width="207" height="80" viewBox="0 0 207 80" fill="none" xmlns="http://www.w3.org/2000/svg">
<path d="M190.3 52.6374C189.937 52.6374 189.628 52.5648 189.374 52.4197C189.119 52.2746 188.992 52.0025 188.992 51.6033C188.992 51.0954 189.119 50.5149 189.374 49.8618C189.628 49.2087 189.919 48.5737 190.246 47.9569C190.573 47.3039 190.864 46.7778 191.118 46.3786C189.846 47.7211 188.52 48.991 187.139 50.1883C186.448 50.7688 185.685 51.3131 184.849 51.821C184.013 52.329 183.123 52.583 182.178 52.583C181.815 52.583 181.56 52.4741 181.415 52.2564C181.27 52.0024 181.197 51.7122 181.197 51.3856C181.197 51.2042 181.215 51.0772 181.252 51.0047C181.433 49.5897 181.888 48.1202 182.614 46.5963C183.341 45.0725 184.232 43.6393 185.285 42.2969C186.339 40.9544 187.411 39.8659 188.502 39.0314C189.737 38.0881 191.1 37.6164 192.59 37.6164H198.859C199.041 37.6164 199.131 37.689 199.131 37.8341C199.131 38.1244 198.968 38.2695 198.641 38.2695C198.277 38.2695 197.914 38.5053 197.551 38.977C197.187 39.4124 196.915 39.7752 196.733 40.0655C196.478 40.4646 196.079 41.1358 195.534 42.0792C194.988 43.0225 194.425 44.0566 193.844 45.1813C193.299 46.2698 192.826 47.2857 192.426 48.2291C192.027 49.1724 191.827 49.8618 191.827 50.2972C191.827 50.8051 192.081 51.0591 192.59 51.0591C193.135 51.0591 193.753 50.8051 194.443 50.2972C195.134 49.7892 195.824 49.1724 196.515 48.4468C197.242 47.6848 197.896 46.941 198.477 46.2154C199.095 45.4534 199.586 44.8548 199.949 44.4194C200.167 44.6371 200.149 44.9455 199.895 45.3446C199.676 45.7074 199.477 45.9977 199.295 46.2154C198.568 47.1587 197.732 48.1384 196.787 49.1543C195.842 50.1339 194.807 50.9684 193.68 51.6578C192.59 52.3109 191.463 52.6374 190.3 52.6374ZM184.413 50.7326C184.849 50.7326 185.449 50.4242 186.212 49.8074C187.012 49.1543 187.866 48.356 188.774 47.4127C189.683 46.4331 190.537 45.4172 191.336 44.365C192.136 43.2765 192.79 42.2969 193.299 41.4261C193.844 40.519 194.116 39.8296 194.116 39.358C194.116 38.9588 193.989 38.6867 193.735 38.5416C193.517 38.3965 193.226 38.3239 192.863 38.3239C192.281 38.3239 191.645 38.5416 190.955 38.977C190.3 39.3761 189.774 39.7752 189.374 40.1743C188.938 40.5734 188.411 41.2084 187.793 42.0792C187.211 42.9137 186.63 43.8389 186.049 44.8548C185.467 45.8707 184.976 46.8503 184.577 47.7937C184.177 48.737 183.977 49.4989 183.977 50.0795C183.977 50.5149 184.122 50.7326 184.413 50.7326Z" fill="white"/>
<path d="M165.221 53.2904C165.076 53.2904 165.076 53.1271 165.221 52.8006C165.403 52.474 165.566 52.1112 165.711 51.7121C165.893 51.313 166.075 50.8776 166.257 50.4059C166.62 49.5352 167.02 48.5555 167.456 47.467C167.892 46.3786 168.31 45.3264 168.71 44.3105C169.109 43.2583 169.455 42.3693 169.745 41.6437C170.072 40.8818 170.29 40.3919 170.4 40.1742C169.891 40.7185 169.273 41.4078 168.546 42.2423C167.856 43.0406 167.201 43.8206 166.584 44.5826C165.966 45.3445 165.493 45.9432 165.166 46.3786C165.057 46.5237 164.966 46.5963 164.894 46.5963C164.821 46.5963 164.785 46.5056 164.785 46.3241C164.785 46.0339 164.876 45.7618 165.057 45.5078C165.748 44.637 166.511 43.6574 167.347 42.5689C168.219 41.4804 169 40.4826 169.691 39.5756C170.381 38.6322 170.817 38.0154 170.999 37.7252C171.399 37.6526 171.98 37.5438 172.744 37.3986C173.543 37.2535 174.088 37.0539 174.379 36.8C174.488 36.6911 174.597 36.6367 174.706 36.6367C174.779 36.6367 174.815 36.7093 174.815 36.8544C174.851 36.9632 174.815 37.0902 174.706 37.2353C174.488 37.4893 174.106 38.088 173.561 39.0313C173.052 39.9384 172.489 40.9543 171.871 42.0791C171.29 43.2038 170.745 44.2198 170.236 45.1268C170.672 44.5463 171.144 43.9839 171.653 43.4397C172.162 42.8954 172.653 42.3693 173.125 41.8614C173.561 41.426 174.161 40.8818 174.924 40.2287C175.687 39.5756 176.487 38.9769 177.322 38.4327C178.158 37.8884 178.885 37.58 179.503 37.5075C179.648 37.4712 179.776 37.453 179.885 37.453C180.03 37.453 180.139 37.453 180.212 37.453C181.011 37.453 181.411 37.7433 181.411 38.3238C181.411 38.7592 181.175 39.3397 180.702 40.0654C180.448 40.4645 180.048 41.1357 179.503 42.0791C178.994 42.9861 178.467 43.9839 177.922 45.0724C177.413 46.1246 176.959 47.1224 176.559 48.0657C176.196 48.9728 176.014 49.644 176.014 50.0794C176.014 50.5873 176.269 50.8413 176.777 50.8413C177.395 50.8413 178.067 50.5329 178.794 49.9161C179.557 49.2993 180.375 48.5192 181.247 47.5759C182.12 46.5963 182.992 45.5622 183.864 44.4737C183.937 44.5463 183.973 44.6733 183.973 44.8547C183.973 45.1087 183.882 45.3627 183.7 45.6166C183.555 45.8343 183.41 46.0339 183.264 46.2153C182.901 46.687 182.41 47.2856 181.792 48.0113C181.211 48.7007 180.611 49.39 179.994 50.0794C179.376 50.7325 178.812 51.2586 178.304 51.6577C177.94 51.9117 177.468 52.1838 176.886 52.474C176.305 52.7643 175.723 52.9094 175.142 52.9094C174.488 52.9094 174.034 52.7462 173.779 52.4196C173.525 52.0568 173.398 51.6214 173.398 51.1134C173.398 50.5329 173.507 49.9161 173.725 49.263C173.943 48.6099 174.179 47.9931 174.433 47.4126C174.724 46.7958 174.942 46.3423 175.088 46.052C175.742 44.7821 176.341 43.5848 176.886 42.46C177.432 41.3353 177.813 40.5371 178.031 40.0654C178.14 39.8477 178.195 39.6663 178.195 39.5212C178.195 39.2672 177.995 39.249 177.595 39.4667C177.195 39.6844 176.705 40.011 176.123 40.4464C175.578 40.8818 175.069 41.3171 174.597 41.7525C174.124 42.1516 173.816 42.4238 173.67 42.5689C172.326 43.9839 171.144 45.5622 170.127 47.3038C169.146 49.0091 168.31 50.7688 167.619 52.5829C167.147 52.6192 166.675 52.7462 166.202 52.9639C165.73 53.1816 165.403 53.2904 165.221 53.2904Z" fill="white"/>
<path d="M165.745 31.6841C165.236 31.6841 164.873 31.5208 164.655 31.1943C164.509 31.0129 164.437 30.777 164.437 30.4868C164.437 29.9063 164.709 29.4346 165.254 29.0718C165.654 28.8541 166.018 28.7452 166.345 28.7452C166.89 28.7452 167.271 28.9085 167.489 29.235C167.635 29.4164 167.707 29.6523 167.707 29.9425C167.707 30.5231 167.417 30.9947 166.835 31.3576C166.508 31.5753 166.145 31.6841 165.745 31.6841ZM156.26 52.6373C155.897 52.6373 155.588 52.5647 155.333 52.4196C155.115 52.2745 155.006 52.0024 155.006 51.6033C155.006 51.0953 155.133 50.4966 155.388 49.8073C155.679 49.1179 155.987 48.4285 156.315 47.7392C156.678 47.0498 156.951 46.4874 157.132 46.052C157.387 45.5441 157.696 44.891 158.059 44.0928C158.459 43.2583 158.822 42.4782 159.149 41.7525C159.513 40.9906 159.767 40.4645 159.912 40.1742C159.404 40.7185 158.786 41.4078 158.059 42.2423C157.368 43.0406 156.714 43.8206 156.096 44.5826C155.479 45.3445 155.006 45.9432 154.679 46.3786C154.57 46.5237 154.479 46.5963 154.407 46.5963C154.334 46.5963 154.298 46.5055 154.298 46.3241C154.298 46.0339 154.388 45.7618 154.57 45.5078C155.261 44.637 156.024 43.6574 156.86 42.5689C157.732 41.4804 158.513 40.4826 159.204 39.5756C159.894 38.6322 160.33 38.0154 160.512 37.7252C160.912 37.6526 161.493 37.5437 162.256 37.3986C163.056 37.2535 163.601 37.0539 163.892 36.7999C164.001 36.6911 164.11 36.6367 164.219 36.6367C164.291 36.6367 164.328 36.7092 164.328 36.8544C164.364 36.9632 164.328 37.0902 164.219 37.2353C164.001 37.4893 163.619 38.1061 163.074 39.0858C162.529 40.0654 161.947 41.1539 161.33 42.3512C160.748 43.5122 160.203 44.5644 159.694 45.5078C159.185 46.4874 158.749 47.4308 158.386 48.3378C158.023 49.2449 157.841 49.898 157.841 50.2971C157.841 50.805 158.095 51.059 158.604 51.059C159.076 51.059 159.676 50.7688 160.403 50.1882C161.166 49.6077 161.929 48.9183 162.692 48.1201C163.456 47.2856 164.128 46.5237 164.709 45.8343C164.891 45.6166 165.109 45.3626 165.363 45.0724C165.654 44.7458 165.836 44.5463 165.909 44.4737C165.981 44.5463 166.018 44.6733 166.018 44.8547C165.981 45.1087 165.89 45.3626 165.745 45.6166C165.6 45.8343 165.454 46.0339 165.309 46.2153C164.546 47.1586 163.71 48.1383 162.801 49.1542C161.893 50.1338 160.894 50.9683 159.803 51.6577C158.713 52.3108 157.532 52.6373 156.26 52.6373Z" fill="white"/>
<path d="M129.128 53.2904C128.983 53.2904 128.983 53.1271 129.128 52.8006C129.31 52.474 129.473 52.1112 129.619 51.7121C129.8 51.313 129.982 50.8776 130.164 50.4059C130.527 49.5352 130.927 48.5555 131.363 47.467C131.799 46.3786 132.217 45.3264 132.617 44.3105C133.017 43.2583 133.362 42.3693 133.653 41.6437C133.98 40.8818 134.198 40.3919 134.307 40.1742C133.798 40.7185 133.18 41.4078 132.453 42.2423C131.763 43.0406 131.109 43.8206 130.491 44.5826C129.873 45.3445 129.401 45.9432 129.074 46.3786C128.965 46.5237 128.874 46.5963 128.801 46.5963C128.728 46.5963 128.692 46.5056 128.692 46.3241C128.692 46.0339 128.783 45.7618 128.965 45.5078C129.655 44.637 130.418 43.6574 131.254 42.5689C132.126 41.4804 132.908 40.4826 133.598 39.5756C134.289 38.6322 134.725 38.0154 134.906 37.7252C135.306 37.6526 135.888 37.5438 136.651 37.3986C137.45 37.2535 137.995 37.0539 138.286 36.8C138.395 36.6911 138.504 36.6367 138.613 36.6367C138.686 36.6367 138.722 36.7093 138.722 36.8544C138.759 36.9632 138.722 37.0902 138.613 37.2353C138.395 37.4893 138.014 38.088 137.468 39.0313C136.96 39.9384 136.396 40.9543 135.779 42.0791C135.197 43.2038 134.652 44.2198 134.143 45.1268C134.725 44.4374 135.288 43.7844 135.833 43.1676C136.415 42.5508 136.814 42.1154 137.032 41.8614C137.468 41.426 138.068 40.8818 138.831 40.2287C139.594 39.5756 140.394 38.9769 141.23 38.4327C142.066 37.8884 142.792 37.58 143.41 37.5075C143.556 37.4712 143.683 37.453 143.792 37.453C143.901 37.453 144.01 37.453 144.119 37.453C144.809 37.453 145.155 37.707 145.155 38.215C145.155 38.4327 145.1 38.6867 144.991 38.9769C144.882 39.2672 144.737 39.5574 144.555 39.8477C144.337 40.2831 143.973 40.9725 143.465 41.9158C142.956 42.8229 142.502 43.6574 142.102 44.4193L144.664 41.8614C145.1 41.426 145.7 40.8818 146.463 40.2287C147.226 39.5756 148.026 38.9769 148.861 38.4327C149.697 37.8884 150.424 37.58 151.042 37.5075C151.187 37.4712 151.314 37.453 151.423 37.453C151.569 37.453 151.678 37.453 151.75 37.453C152.55 37.453 152.95 37.7433 152.95 38.3238C152.95 38.7592 152.714 39.3397 152.241 40.0654C151.987 40.4645 151.587 41.1357 151.042 42.0791C150.497 43.0224 149.933 44.0565 149.352 45.1812C148.807 46.2697 148.334 47.2856 147.935 48.229C147.535 49.1723 147.335 49.8617 147.335 50.2971C147.335 50.805 147.589 51.059 148.098 51.059C148.571 51.059 149.17 50.7869 149.897 50.2427C150.66 49.6621 151.423 48.9728 152.187 48.1746C152.986 47.3763 153.677 46.6144 154.258 45.8888C154.512 45.5985 154.749 45.3082 154.967 45.018C155.221 44.6914 155.366 44.51 155.403 44.4737C155.475 44.5463 155.512 44.6733 155.512 44.8547C155.512 45.1087 155.421 45.3627 155.239 45.6166C155.094 45.8343 154.948 46.0339 154.803 46.2153C154.113 47.1224 153.313 48.0657 152.405 49.0453C151.532 50.025 150.569 50.8595 149.515 51.5488C148.462 52.2019 147.335 52.5829 146.136 52.6917C145.772 52.728 145.409 52.6555 145.046 52.474C144.682 52.2926 144.5 52.0024 144.5 51.6033C144.5 51.0953 144.628 50.4966 144.882 49.8073C145.173 49.1179 145.482 48.4285 145.809 47.7392C146.172 47.0498 146.445 46.4874 146.626 46.052C147.281 44.7821 147.88 43.5848 148.425 42.46C148.97 41.3353 149.352 40.5371 149.57 40.0654C149.679 39.8477 149.734 39.6663 149.734 39.5212C149.734 39.2672 149.534 39.249 149.134 39.4667C148.734 39.6844 148.244 40.011 147.662 40.4464C147.117 40.8818 146.608 41.3171 146.136 41.7525C145.663 42.1516 145.354 42.4238 145.209 42.5689C144.591 43.1857 143.846 44.0202 142.974 45.0724C142.138 46.1246 141.357 47.2312 140.63 48.3923C139.903 49.517 139.394 50.5692 139.104 51.5488C138.74 51.8754 138.395 52.0387 138.068 52.0387C137.814 52.0387 137.596 51.9479 137.414 51.7665C137.269 51.5851 137.196 51.3674 137.196 51.1134C137.196 50.3878 137.414 49.5352 137.85 48.5555C138.322 47.5396 138.704 46.7051 138.995 46.052C139.649 44.7821 140.248 43.5848 140.794 42.46C141.339 41.3353 141.72 40.5371 141.938 40.0654C142.047 39.8477 142.102 39.6663 142.102 39.5212C142.102 39.2672 141.902 39.249 141.502 39.4667C141.103 39.6844 140.612 40.011 140.03 40.4464C139.485 40.8818 138.977 41.3171 138.504 41.7525C138.032 42.1516 137.723 42.4238 137.577 42.5689C136.705 43.476 135.888 44.4012 135.124 45.3445C134.398 46.2879 133.78 47.3038 133.271 48.3923C132.98 49.0453 132.671 49.771 132.344 50.5692C132.017 51.3674 131.745 52.0387 131.527 52.5829C131.054 52.6192 130.582 52.7462 130.109 52.9639C129.637 53.1816 129.31 53.2904 129.128 53.2904Z" fill="white"/>
<path d="M110.454 52.6374C110.09 52.6374 109.781 52.5648 109.527 52.4197C109.273 52.2745 109.145 52.0024 109.145 51.6033C109.145 51.0954 109.273 50.4967 109.527 49.8073C109.818 49.1179 110.127 48.4286 110.454 47.7392C110.781 47.0498 111.053 46.4875 111.271 46.0521C111.707 45.2176 112.125 44.3831 112.525 43.5486C112.925 42.7141 113.27 42.0066 113.561 41.426C113.852 40.8818 113.997 40.519 113.997 40.3376C113.997 40.0473 113.779 40.0473 113.343 40.3376C112.943 40.6278 112.561 40.9181 112.198 41.2083C111.399 41.9703 110.563 42.8773 109.691 43.9295C108.818 44.9454 108.146 45.7618 107.674 46.3786C107.565 46.5237 107.474 46.5963 107.401 46.5963C107.328 46.5963 107.292 46.5056 107.292 46.3242C107.292 46.0339 107.383 45.7618 107.565 45.5078C108.073 44.7822 108.673 43.984 109.363 43.1132C110.054 42.2424 110.763 41.4079 111.489 40.6097C112.18 39.884 112.889 39.1765 113.615 38.4871C114.342 37.7978 115.269 37.4531 116.395 37.4531C117.159 37.4531 117.54 37.7433 117.54 38.3239C117.54 38.8318 117.322 39.4123 116.886 40.0654C116.632 40.4645 116.232 41.1358 115.687 42.0791C115.142 43.0225 114.578 44.0565 113.997 45.1813C113.452 46.2698 112.979 47.2857 112.58 48.229C112.18 49.1724 111.98 49.8617 111.98 50.2971C111.98 50.8051 112.234 51.0591 112.743 51.0591C113.143 51.0591 113.634 50.8595 114.215 50.4604C114.796 50.025 115.396 49.5171 116.014 48.9365C117.14 47.8481 118.158 46.6689 119.067 45.399C120.011 44.0928 120.811 42.8411 121.465 41.6437C122.156 40.4464 122.701 39.4668 123.1 38.7048C123.173 38.5597 123.246 38.3964 123.318 38.215C123.427 37.9973 123.591 37.8703 123.809 37.8341C124.027 37.7978 124.5 37.7796 125.226 37.7796C125.953 37.7796 126.625 37.6345 127.243 37.3442H127.352C127.461 37.3442 127.516 37.3987 127.516 37.5075C127.516 37.7978 127.28 38.0155 126.807 38.1606C126.371 38.3057 125.862 38.7411 125.281 39.4668C124.736 40.1924 124.191 41.0813 123.645 42.1335C123.1 43.1495 122.61 44.2017 122.174 45.2901C121.738 46.3786 121.411 47.3764 121.192 48.2834C120.974 49.1905 120.92 49.8617 121.029 50.2971C121.174 50.8051 121.429 51.0591 121.792 51.0591C122.265 51.0591 122.919 50.7688 123.755 50.1883C124.627 49.6078 125.517 48.9184 126.426 48.1202C127.334 47.2857 128.079 46.5237 128.661 45.8344C128.915 45.5441 129.151 45.2538 129.369 44.9636C129.587 44.6733 129.733 44.4919 129.805 44.4193C129.842 44.4556 129.878 44.5282 129.914 44.637C129.951 44.7096 129.969 44.7822 129.969 44.8547C129.933 45.1087 129.842 45.3627 129.696 45.6167C129.551 45.8344 129.387 46.0339 129.206 46.2153C128.515 47.1224 127.679 48.0839 126.698 49.0998C125.753 50.0794 124.718 50.9139 123.591 51.6033C122.501 52.2927 121.374 52.6374 120.211 52.6374C119.848 52.6374 119.43 52.5467 118.957 52.3652C118.521 52.1838 118.303 51.7847 118.303 51.1679C118.303 50.6962 118.431 50.0613 118.685 49.2631C118.939 48.4286 119.212 47.6122 119.503 46.814C119.83 45.9795 120.102 45.3627 120.32 44.9636C119.848 45.653 119.266 46.433 118.576 47.3038C117.922 48.1383 117.249 48.8821 116.559 49.5352C115.65 50.406 114.669 51.1498 113.615 51.7666C112.598 52.3471 111.544 52.6374 110.454 52.6374Z" fill="white"/>
<path d="M76.1726 52.8551C76.1362 52.8913 76.0999 52.9095 76.0636 52.9095C75.9545 52.9095 75.9 52.7462 75.9 52.4197C75.9 52.202 75.9545 51.9843 76.0636 51.7666C76.2089 51.5126 76.4633 51.3675 76.8267 51.3312C77.8443 51.2586 78.8073 50.9139 79.7158 50.2971C80.6244 49.6803 81.4239 48.9547 82.1144 48.1202C82.8048 47.2494 83.2954 46.433 83.5862 45.6711L88.6013 33.1536C89.2917 31.4483 90.0731 29.7975 90.9453 28.201C91.8538 26.6046 92.9985 25.2984 94.3795 24.2825C95.7968 23.2666 97.5775 22.7586 99.7216 22.7586C100.557 22.7586 101.393 22.8675 102.229 23.0852C103.101 23.2666 103.828 23.575 104.41 24.0104C104.991 24.4458 105.282 25.0626 105.282 25.8608C105.282 25.9696 105.282 26.0785 105.282 26.1873C105.282 26.2962 105.264 26.405 105.227 26.5139C105.118 27.0944 104.791 27.6749 104.246 28.2555C103.737 28.836 103.338 29.5616 103.047 30.4324C103.011 30.6864 102.847 30.8134 102.556 30.8134C102.302 30.8134 102.247 30.6501 102.393 30.3236C102.683 29.8882 102.901 29.3802 103.047 28.7997C103.229 28.1829 103.319 27.5661 103.319 26.9493C103.319 26.0059 103.101 25.1714 102.665 24.4458C102.229 23.7201 101.484 23.3573 100.43 23.3573C99.4854 23.3573 98.5224 23.6294 97.5412 24.1737C96.56 24.7179 95.7059 25.6612 94.9791 27.0037L84.8945 45.5623C83.9496 47.3038 83.0774 48.5556 82.2779 49.3175C81.5147 50.0432 80.8788 50.4967 80.37 50.6781H93.5073C95.2517 50.6781 96.8689 50.6237 98.3588 50.5148C99.8488 50.406 100.757 50.1339 101.084 49.6985C101.448 49.1905 101.63 48.6463 101.63 48.0658C101.63 47.1587 101.139 46.4875 100.158 46.0521C100.049 45.9795 99.9942 45.9069 99.9942 45.8344C99.9942 45.7618 100.031 45.6892 100.103 45.6167C100.212 45.5441 100.339 45.5441 100.485 45.6167C100.812 45.7618 101.193 46.0884 101.63 46.5963C102.102 47.068 102.538 47.5941 102.938 48.1746C103.338 48.7188 103.592 49.1542 103.701 49.4808C103.81 49.8073 103.865 50.1339 103.865 50.4604C103.865 51.948 102.574 52.6918 99.9942 52.6918C97.9591 52.6918 95.7786 52.6192 93.4528 52.4741C91.127 52.329 88.8193 52.1657 86.5298 51.9843C84.2767 51.8029 82.1507 51.6759 80.1519 51.6033C79.3888 51.5307 78.6256 51.6396 77.8624 51.9299C77.1356 52.1838 76.5723 52.4922 76.1726 52.8551Z" fill="white"/>
<path d="M37.9502 7.04785C38.1407 9.29259 38.3895 11.8916 38.707 14.5586C39.1554 18.3249 39.7392 22.2388 40.4834 25.4863C40.8553 27.1094 41.2696 28.5774 41.7314 29.7822C42.1884 30.9743 42.7118 31.9618 43.3252 32.5752C43.9385 33.1884 44.9253 33.7111 46.1172 34.168C47.3221 34.6299 48.7908 35.045 50.4141 35.417C53.6614 36.1611 57.5748 36.745 61.3408 37.1934C64.0077 37.5108 66.6069 37.7597 68.8516 37.9502C66.6069 38.1407 64.0077 38.3895 61.3408 38.707C57.5748 39.1554 53.6614 39.7392 50.4141 40.4834C48.7908 40.8554 47.3221 41.2695 46.1172 41.7314C44.9251 42.1884 43.9385 42.7118 43.3252 43.3252C42.7118 43.9385 42.1884 44.9251 41.7314 46.1172C41.2695 47.3221 40.8554 48.7908 40.4834 50.4141C39.7392 53.6614 39.1554 57.5748 38.707 61.3408C38.3895 64.0077 38.1407 66.6069 37.9502 68.8516C37.7597 66.6069 37.5108 64.0077 37.1934 61.3408C36.745 57.5748 36.1611 53.6614 35.417 50.4141C35.045 48.7908 34.6299 47.3221 34.168 46.1172C33.7111 44.9253 33.1884 43.9385 32.5752 43.3252C32.0428 42.7928 31.1103 42.3375 29.9775 41.9336C28.8241 41.5224 27.3884 41.1388 25.7842 40.7842C22.5743 40.0747 18.6412 39.4685 14.832 38.9756C11.7739 38.5798 8.78871 38.2572 6.31055 38.0117C8.71385 37.8146 11.5942 37.5463 14.5586 37.1934C18.3249 36.745 22.2388 36.1612 25.4863 35.417C27.1095 35.045 28.5773 34.6298 29.7822 34.168C30.9743 33.711 31.9618 33.1885 32.5752 32.5752C33.1885 31.9618 33.711 30.9743 34.168 29.7822C34.6298 28.5773 35.045 27.1095 35.417 25.4863C36.1612 22.2388 36.745 18.3249 37.1934 14.5586C37.5109 11.8916 37.7597 9.29259 37.9502 7.04785Z" fill="white" stroke="#26658C"/>
</svg>
