<svg width="300" height="116" viewBox="0 0 300 116" fill="none" xmlns="http://www.w3.org/2000/svg">
<path d="M275.798 76.3244C275.271 76.3244 274.824 76.2192 274.455 76.0087C274.086 75.7983 273.902 75.4037 273.902 74.825C273.902 74.0885 274.086 73.2467 274.455 72.2997C274.824 71.3528 275.245 70.4321 275.719 69.5377C276.193 68.5908 276.614 67.8279 276.983 67.2492C275.14 69.1958 273.217 71.0371 271.216 72.7732C270.215 73.615 269.109 74.4041 267.898 75.1407C266.686 75.8772 265.396 76.2455 264.027 76.2455C263.5 76.2455 263.131 76.0877 262.92 75.772C262.71 75.4037 262.604 74.9828 262.604 74.5094C262.604 74.2463 262.631 74.0622 262.683 73.957C262.947 71.9052 263.605 69.7745 264.659 67.5649C265.712 65.3553 267.002 63.2772 268.53 61.3306C270.057 59.384 271.611 57.8058 273.191 56.5957C274.982 55.2279 276.957 54.5439 279.116 54.5439H288.201C288.465 54.5439 288.596 54.6492 288.596 54.8596C288.596 55.2805 288.359 55.4909 287.885 55.4909C287.359 55.4909 286.832 55.8329 286.305 56.5168C285.779 57.1481 285.384 57.6742 285.12 58.0951C284.752 58.6738 284.172 59.6471 283.382 61.0149C282.592 62.3828 281.776 63.8822 280.933 65.5131C280.143 67.0914 279.458 68.5645 278.879 69.9323C278.3 71.3002 278.01 72.2997 278.01 72.9311C278.01 73.6676 278.379 74.0359 279.116 74.0359C279.906 74.0359 280.801 73.6676 281.802 72.9311C282.803 72.1945 283.803 71.3002 284.804 70.248C285.858 69.1432 286.806 68.0647 287.648 67.0125C288.544 65.9077 289.255 65.0396 289.781 64.4083C290.097 64.7239 290.071 65.1711 289.702 65.7498C289.386 66.2759 289.097 66.6968 288.833 67.0125C287.78 68.3803 286.569 69.8008 285.199 71.2739C283.83 72.6943 282.329 73.9043 280.696 74.9039C279.116 75.8509 277.483 76.3244 275.798 76.3244ZM267.266 73.5624C267.898 73.5624 268.767 73.1152 269.873 72.2208C271.031 71.2739 272.269 70.1164 273.586 68.7486C274.903 67.3281 276.14 65.855 277.299 64.3294C278.458 62.7511 279.406 61.3306 280.143 60.068C280.933 58.7527 281.328 57.7531 281.328 57.0692C281.328 56.4905 281.144 56.0959 280.775 55.8855C280.459 55.6751 280.038 55.5698 279.511 55.5698C278.668 55.5698 277.747 55.8855 276.746 56.5168C275.798 57.0955 275.034 57.6742 274.455 58.2529C273.823 58.8316 273.059 59.7523 272.164 61.0149C271.321 62.225 270.478 63.5665 269.636 65.0396C268.793 66.5127 268.082 67.9331 267.503 69.301C266.923 70.6688 266.634 71.7736 266.634 72.6154C266.634 73.2467 266.844 73.5624 267.266 73.5624Z" fill="white"/>
<path d="M239.451 77.2709C239.24 77.2709 239.24 77.0342 239.451 76.5607C239.714 76.0872 239.951 75.5611 240.162 74.9824C240.425 74.4037 240.688 73.7724 240.952 73.0885C241.478 71.8258 242.058 70.4054 242.69 68.8271C243.322 67.2488 243.927 65.7231 244.507 64.25C245.086 62.7243 245.586 61.4354 246.008 60.3832C246.482 59.2784 246.798 58.5682 246.956 58.2525C246.219 59.0416 245.323 60.0412 244.27 61.2513C243.269 62.4087 242.321 63.5398 241.426 64.6446C240.53 65.7494 239.846 66.6175 239.372 67.2488C239.214 67.4592 239.082 67.5644 238.977 67.5644C238.871 67.5644 238.819 67.4329 238.819 67.1699C238.819 66.749 238.95 66.3544 239.214 65.9861C240.214 64.7235 241.32 63.303 242.532 61.7247C243.796 60.1465 244.928 58.6997 245.929 57.3844C246.93 56.0166 247.562 55.1222 247.825 54.7013C248.404 54.5961 249.247 54.4383 250.353 54.2279C251.512 54.0174 252.302 53.7281 252.723 53.3598C252.881 53.202 253.039 53.123 253.197 53.123C253.302 53.123 253.355 53.2283 253.355 53.4387C253.408 53.5965 253.355 53.7807 253.197 53.9911C252.881 54.3594 252.328 55.2274 251.538 56.5953C250.801 57.9105 249.984 59.3836 249.089 61.0145C248.246 62.6454 247.456 64.1185 246.719 65.4337C247.351 64.592 248.036 63.7765 248.773 62.9874C249.51 62.1982 250.221 61.4354 250.906 60.6989C251.538 60.0675 252.407 59.2784 253.513 58.3314C254.619 57.3844 255.778 56.5164 256.989 55.7272C258.201 54.9381 259.254 54.4909 260.149 54.3857C260.36 54.3331 260.544 54.3068 260.702 54.3068C260.913 54.3068 261.071 54.3068 261.176 54.3068C262.335 54.3068 262.914 54.7276 262.914 55.5694C262.914 56.2007 262.572 57.0425 261.887 58.0947C261.519 58.6734 260.939 59.6467 260.149 61.0145C259.412 62.3298 258.648 63.7765 257.858 65.3548C257.121 66.8805 256.462 68.3273 255.883 69.6951C255.356 71.0104 255.093 71.9837 255.093 72.615C255.093 73.3515 255.462 73.7198 256.199 73.7198C257.095 73.7198 258.069 73.2726 259.122 72.3782C260.228 71.4839 261.413 70.3528 262.677 68.9849C263.941 67.5644 265.205 66.0651 266.469 64.4868C266.575 64.592 266.627 64.7761 266.627 65.0392C266.627 65.4074 266.496 65.7757 266.232 66.144C266.022 66.4596 265.811 66.749 265.6 67.012C265.074 67.696 264.363 68.564 263.467 69.6162C262.625 70.6158 261.756 71.6154 260.86 72.615C259.965 73.5619 259.149 74.3248 258.411 74.9035C257.885 75.2718 257.2 75.6663 256.357 76.0872C255.514 76.5081 254.672 76.7185 253.829 76.7185C252.881 76.7185 252.223 76.4818 251.854 76.0083C251.485 75.4822 251.301 74.8509 251.301 74.1144C251.301 73.2726 251.459 72.3782 251.775 71.4312C252.091 70.4843 252.433 69.5899 252.802 68.7482C253.223 67.8538 253.539 67.1962 253.75 66.7753C254.698 64.9339 255.567 63.1978 256.357 61.5669C257.147 59.936 257.7 58.7786 258.016 58.0947C258.174 57.779 258.253 57.516 258.253 57.3055C258.253 56.9373 257.964 56.911 257.384 57.2266C256.805 57.5423 256.094 58.0158 255.251 58.6471C254.461 59.2784 253.724 59.9097 253.039 60.541C252.354 61.1197 251.907 61.5143 251.696 61.7247C249.747 63.7765 248.036 66.0651 246.561 68.5903C245.139 71.063 243.927 73.6146 242.927 76.2451C242.242 76.2977 241.557 76.4818 240.873 76.7975C240.188 77.1131 239.714 77.2709 239.451 77.2709Z" fill="white"/>
<path d="M240.21 45.9421C239.473 45.9421 238.946 45.7053 238.63 45.2318C238.42 44.9688 238.314 44.6268 238.314 44.2059C238.314 43.3642 238.709 42.6802 239.499 42.1542C240.079 41.8385 240.605 41.6807 241.079 41.6807C241.869 41.6807 242.422 41.9174 242.738 42.3909C242.949 42.6539 243.054 42.9959 243.054 43.4168C243.054 44.2585 242.633 44.9425 241.79 45.4686C241.316 45.7842 240.79 45.9421 240.21 45.9421ZM226.464 76.3242C225.937 76.3242 225.49 76.219 225.121 76.0085C224.805 75.7981 224.647 75.4035 224.647 74.8248C224.647 74.0883 224.831 73.2202 225.2 72.2206C225.621 71.2211 226.069 70.2215 226.543 69.2219C227.07 68.2223 227.465 67.4068 227.728 66.7755C228.097 66.039 228.544 65.092 229.071 63.9346C229.65 62.7246 230.177 61.5935 230.651 60.5413C231.178 59.4365 231.546 58.6736 231.757 58.2527C231.02 59.0419 230.124 60.0415 229.071 61.2515C228.07 62.4089 227.122 63.54 226.227 64.6448C225.332 65.7496 224.647 66.6177 224.173 67.249C224.015 67.4595 223.883 67.5647 223.778 67.5647C223.673 67.5647 223.62 67.4332 223.62 67.1701C223.62 66.7492 223.752 66.3547 224.015 65.9864C225.016 64.7238 226.122 63.3033 227.333 61.725C228.597 60.1467 229.729 58.6999 230.73 57.3847C231.731 56.0168 232.363 55.1225 232.626 54.7016C233.206 54.5964 234.048 54.4385 235.154 54.2281C236.313 54.0177 237.103 53.7283 237.524 53.36C237.682 53.2022 237.84 53.1233 237.998 53.1233C238.104 53.1233 238.156 53.2285 238.156 53.439C238.209 53.5968 238.156 53.7809 237.998 53.9914C237.682 54.3596 237.129 55.254 236.339 56.6745C235.549 58.0949 234.707 59.6732 233.811 61.4093C232.969 63.0928 232.178 64.6185 231.441 65.9864C230.704 67.4068 230.072 68.7747 229.545 70.0899C229.018 71.4052 228.755 72.3522 228.755 72.9309C228.755 73.6674 229.124 74.0357 229.861 74.0357C230.546 74.0357 231.415 73.6148 232.468 72.773C233.574 71.9313 234.68 70.9317 235.786 69.7743C236.892 68.5643 237.867 67.4595 238.709 66.4599C238.973 66.1442 239.289 65.7759 239.657 65.3551C240.079 64.8816 240.342 64.5922 240.447 64.487C240.553 64.5922 240.605 64.7764 240.605 65.0394C240.553 65.4077 240.421 65.7759 240.21 66.1442C240 66.4599 239.789 66.7492 239.578 67.0123C238.472 68.3801 237.261 69.8006 235.944 71.2737C234.628 72.6941 233.179 73.9042 231.599 74.9037C230.019 75.8507 228.307 76.3242 226.464 76.3242Z" fill="white"/>
<path d="M187.142 77.2709C186.932 77.2709 186.932 77.0342 187.142 76.5607C187.406 76.0872 187.643 75.5611 187.853 74.9824C188.117 74.4037 188.38 73.7724 188.643 73.0885C189.17 71.8258 189.749 70.4054 190.381 68.8271C191.013 67.2488 191.619 65.7231 192.198 64.25C192.778 62.7243 193.278 61.4354 193.699 60.3832C194.173 59.2784 194.49 58.5682 194.648 58.2525C193.91 59.0416 193.015 60.0412 191.961 61.2513C190.961 62.4087 190.013 63.5398 189.117 64.6446C188.222 65.7494 187.537 66.6175 187.063 67.2488C186.905 67.4592 186.774 67.5644 186.668 67.5644C186.563 67.5644 186.51 67.4329 186.51 67.1699C186.51 66.749 186.642 66.3544 186.905 65.9861C187.906 64.7235 189.012 63.303 190.223 61.7247C191.487 60.1465 192.62 58.6997 193.62 57.3844C194.621 56.0166 195.253 55.1222 195.517 54.7013C196.096 54.5961 196.939 54.4383 198.045 54.2279C199.203 54.0174 199.993 53.7281 200.415 53.3598C200.573 53.202 200.731 53.123 200.889 53.123C200.994 53.123 201.047 53.2283 201.047 53.4387C201.099 53.5965 201.047 53.7807 200.889 53.9911C200.573 54.3594 200.02 55.2274 199.23 56.5953C198.492 57.9105 197.676 59.3836 196.781 61.0145C195.938 62.6454 195.148 64.1185 194.41 65.4337C195.253 64.4341 196.07 63.4872 196.86 62.5928C197.702 61.6984 198.282 61.0671 198.598 60.6989C199.23 60.0675 200.099 59.2784 201.205 58.3314C202.311 57.3844 203.469 56.5164 204.681 55.7272C205.892 54.9381 206.946 54.4909 207.841 54.3857C208.052 54.3331 208.236 54.3068 208.394 54.3068C208.552 54.3068 208.71 54.3068 208.868 54.3068C209.869 54.3068 210.369 54.675 210.369 55.4116C210.369 55.7272 210.29 56.0955 210.132 56.5164C209.974 56.9373 209.763 57.3581 209.5 57.779C209.184 58.4103 208.657 59.4099 207.92 60.7778C207.183 62.093 206.524 63.303 205.945 64.4078L209.658 60.6989C210.29 60.0675 211.159 59.2784 212.265 58.3314C213.371 57.3844 214.53 56.5164 215.741 55.7272C216.953 54.9381 218.006 54.4909 218.901 54.3857C219.112 54.3331 219.296 54.3068 219.454 54.3068C219.665 54.3068 219.823 54.3068 219.928 54.3068C221.087 54.3068 221.666 54.7276 221.666 55.5694C221.666 56.2007 221.324 57.0425 220.639 58.0947C220.271 58.6734 219.691 59.6467 218.901 61.0145C218.111 62.3824 217.295 63.8817 216.452 65.5126C215.662 67.0909 214.977 68.564 214.398 69.9319C213.819 71.2997 213.529 72.2993 213.529 72.9306C213.529 73.6672 213.898 74.0354 214.635 74.0354C215.32 74.0354 216.189 73.6409 217.242 72.8517C218.348 72.01 219.454 71.0104 220.56 69.853C221.719 68.6955 222.72 67.5907 223.562 66.5385C223.931 66.1177 224.273 65.6968 224.589 65.2759C224.958 64.8024 225.169 64.5394 225.221 64.4868C225.327 64.592 225.379 64.7761 225.379 65.0392C225.379 65.4074 225.248 65.7757 224.984 66.144C224.774 66.4596 224.563 66.749 224.352 67.012C223.352 68.3273 222.193 69.6951 220.876 71.1156C219.612 72.5361 218.217 73.7461 216.689 74.7457C215.162 75.6926 213.529 76.245 211.791 76.4029C211.264 76.4555 210.738 76.3503 210.211 76.0872C209.684 75.8242 209.421 75.4033 209.421 74.8246C209.421 74.088 209.605 73.22 209.974 72.2204C210.395 71.2208 210.843 70.2212 211.317 69.2216C211.844 68.2221 212.239 67.4066 212.502 66.7753C213.45 64.9339 214.319 63.1978 215.109 61.5669C215.899 59.936 216.452 58.7786 216.768 58.0947C216.926 57.779 217.005 57.516 217.005 57.3055C217.005 56.9373 216.716 56.911 216.136 57.2266C215.557 57.5423 214.846 58.0158 214.003 58.6471C213.213 59.2784 212.476 59.9097 211.791 60.541C211.106 61.1197 210.659 61.5143 210.448 61.7247C209.553 62.6191 208.473 63.8291 207.209 65.3548C205.998 66.8805 204.865 68.4851 203.812 70.1686C202.758 71.7995 202.021 73.3252 201.6 74.7457C201.073 75.2192 200.573 75.4559 200.099 75.4559C199.73 75.4559 199.414 75.3244 199.151 75.0613C198.94 74.7983 198.835 74.4826 198.835 74.1144C198.835 73.0622 199.151 71.8258 199.783 70.4054C200.467 68.9323 201.02 67.7223 201.442 66.7753C202.39 64.9339 203.259 63.1978 204.049 61.5669C204.839 59.936 205.392 58.7786 205.708 58.0947C205.866 57.779 205.945 57.516 205.945 57.3055C205.945 56.9373 205.655 56.911 205.076 57.2266C204.496 57.5423 203.785 58.0158 202.943 58.6471C202.153 59.2784 201.415 59.9097 200.731 60.541C200.046 61.1197 199.598 61.5143 199.388 61.7247C198.124 63.04 196.939 64.3815 195.833 65.7494C194.779 67.1172 193.884 68.5903 193.146 70.1686C192.725 71.1156 192.277 72.1678 191.803 73.3252C191.329 74.4826 190.934 75.4559 190.618 76.2451C189.934 76.2977 189.249 76.4818 188.564 76.7975C187.88 77.1131 187.406 77.2709 187.142 77.2709Z" fill="white"/>
<path d="M160.078 76.324C159.551 76.324 159.103 76.2187 158.735 76.0083C158.366 75.7979 158.182 75.4033 158.182 74.8246C158.182 74.088 158.366 73.22 158.735 72.2204C159.156 71.2208 159.604 70.2212 160.078 69.2216C160.552 68.222 160.947 67.4066 161.263 66.7753C161.895 65.5652 162.5 64.3552 163.08 63.1452C163.659 61.9352 164.16 60.9093 164.581 60.0675C165.002 59.2784 165.213 58.7523 165.213 58.4892C165.213 58.0684 164.897 58.0684 164.265 58.4892C163.686 58.9101 163.133 59.331 162.606 59.7519C161.447 60.8567 160.236 62.1719 158.972 63.6976C157.708 65.1707 156.733 66.3544 156.049 67.2488C155.891 67.4592 155.759 67.5644 155.654 67.5644C155.548 67.5644 155.496 67.4329 155.496 67.1698C155.496 66.749 155.627 66.3544 155.891 65.9861C156.628 64.9339 157.497 63.7765 158.498 62.5139C159.498 61.2512 160.525 60.0412 161.579 58.8838C162.579 57.8316 163.607 56.8057 164.66 55.8061C165.713 54.8065 167.056 54.3068 168.689 54.3068C169.795 54.3068 170.348 54.7276 170.348 55.5694C170.348 56.3059 170.032 57.1477 169.4 58.0947C169.031 58.6734 168.452 59.6466 167.662 61.0145C166.872 62.3824 166.056 63.8817 165.213 65.5126C164.423 67.0909 163.738 68.564 163.159 69.9319C162.579 71.2997 162.29 72.2993 162.29 72.9306C162.29 73.6672 162.658 74.0354 163.396 74.0354C163.975 74.0354 164.686 73.7461 165.529 73.1674C166.372 72.5361 167.241 71.7995 168.136 70.9578C169.769 69.3795 171.243 67.6696 172.56 65.8283C173.93 63.9343 175.088 62.1193 176.036 60.3832C177.037 58.6471 177.827 57.2266 178.406 56.1218C178.512 55.9114 178.617 55.6746 178.722 55.4116C178.88 55.0959 179.117 54.9118 179.433 54.8592C179.749 54.8066 180.434 54.7802 181.487 54.7802C182.541 54.7802 183.515 54.5698 184.411 54.1489H184.569C184.727 54.1489 184.806 54.2278 184.806 54.3857C184.806 54.8065 184.463 55.1222 183.778 55.3326C183.146 55.5431 182.409 56.1744 181.566 57.2266C180.776 58.2788 179.986 59.5677 179.196 61.0934C178.406 62.5665 177.695 64.0922 177.063 65.6705C176.431 67.2488 175.957 68.6955 175.641 70.0108C175.325 71.326 175.246 72.2993 175.404 72.9306C175.615 73.6672 175.984 74.0354 176.51 74.0354C177.195 74.0354 178.143 73.6145 179.354 72.7728C180.618 71.931 181.909 70.9314 183.225 69.774C184.542 68.564 185.622 67.4592 186.465 66.4596C186.833 66.0387 187.176 65.6179 187.492 65.197C187.808 64.7761 188.018 64.5131 188.124 64.4078C188.176 64.4604 188.229 64.5657 188.282 64.7235C188.334 64.8287 188.361 64.9339 188.361 65.0392C188.308 65.4074 188.176 65.7757 187.966 66.144C187.755 66.4596 187.518 66.749 187.255 67.012C186.254 68.3273 185.043 69.7214 183.62 71.1945C182.251 72.615 180.75 73.825 179.117 74.8246C177.537 75.8242 175.905 76.324 174.219 76.324C173.693 76.324 173.087 76.1924 172.402 75.9294C171.77 75.6663 171.454 75.0876 171.454 74.1933C171.454 73.5093 171.638 72.5887 172.007 71.4312C172.376 70.2212 172.771 69.0375 173.192 67.8801C173.666 66.6701 174.061 65.7757 174.377 65.197C173.693 66.1966 172.85 67.3277 171.849 68.5903C170.901 69.8003 169.927 70.8788 168.926 71.8258C167.609 73.0885 166.187 74.167 164.66 75.0613C163.185 75.9031 161.658 76.324 160.078 76.324Z" fill="white"/>
<path d="M110.395 76.6398C110.342 76.6924 110.29 76.7187 110.237 76.7187C110.079 76.7187 110 76.482 110 76.0085C110 75.6928 110.079 75.3772 110.237 75.0615C110.448 74.6933 110.816 74.4828 111.343 74.4302C112.818 74.325 114.213 73.8252 115.53 72.9308C116.847 72.0365 118.006 70.9843 119.006 69.7742C120.007 68.5116 120.718 67.3279 121.139 66.2231L128.408 48.0727C129.408 45.6 130.541 43.2063 131.805 40.8915C133.121 38.5766 134.78 36.6827 136.782 35.2096C138.836 33.7365 141.417 33 144.524 33C145.735 33 146.947 33.1578 148.158 33.4735C149.422 33.7365 150.476 34.1837 151.318 34.815C152.161 35.4464 152.582 36.3407 152.582 37.4981C152.582 37.656 152.582 37.8138 152.582 37.9716C152.582 38.1295 152.556 38.2873 152.503 38.4451C152.345 39.2869 151.871 40.1286 151.081 40.9704C150.344 41.8121 149.765 42.8643 149.343 44.127C149.291 44.4952 149.054 44.6794 148.632 44.6794C148.264 44.6794 148.185 44.4426 148.395 43.9691C148.817 43.3378 149.133 42.6013 149.343 41.7595C149.607 40.8652 149.738 39.9708 149.738 39.0764C149.738 37.7086 149.422 36.4985 148.79 35.4464C148.158 34.3942 147.078 33.8681 145.551 33.8681C144.182 33.8681 142.786 34.2626 141.364 35.0518C139.942 35.8409 138.704 37.2088 137.651 39.1553L123.035 66.0653C121.666 68.5905 120.402 70.4056 119.243 71.5104C118.137 72.5626 117.216 73.2202 116.478 73.4832H135.518C138.046 73.4832 140.39 73.4043 142.549 73.2465C144.708 73.0887 146.025 72.6941 146.499 72.0628C147.026 71.3262 147.289 70.5371 147.289 69.6953C147.289 68.3801 146.578 67.4068 145.156 66.7755C144.998 66.6703 144.919 66.565 144.919 66.4598C144.919 66.3546 144.972 66.2494 145.077 66.1442C145.235 66.0389 145.419 66.0389 145.63 66.1442C146.104 66.3546 146.657 66.8281 147.289 67.5646C147.974 68.2486 148.606 69.0114 149.185 69.8532C149.765 70.6423 150.133 71.2736 150.291 71.7471C150.449 72.2206 150.528 72.6941 150.528 73.1676C150.528 75.3246 148.659 76.4031 144.919 76.4031C141.97 76.4031 138.81 76.2979 135.439 76.0874C132.068 75.877 128.724 75.6402 125.405 75.3772C122.14 75.1141 119.059 74.93 116.162 74.8248C115.056 74.7196 113.95 74.8774 112.844 75.2983C111.791 75.6665 110.974 76.1137 110.395 76.6398Z" fill="white"/>
<path d="M46.6981 63.3019C41.5094 58.1132 0 55 0 55C0 55 40.4717 52.9245 46.6981 46.6981C52.9245 40.4717 55 0 55 0C55 0 57.0755 40.4717 63.3019 46.6981C69.5283 52.9245 110 55 110 55C110 55 69.5283 57.0755 63.3019 63.3019C57.0755 69.5283 55 110 55 110C55 110 52.9245 69.5283 46.6981 63.3019Z" fill="white"/>
</svg>
